<svg width="236" height="262" viewBox="0 0 236 262" fill="none" xmlns="http://www.w3.org/2000/svg">
<g clip-path="url(#clip0)">
<path d="M50.2919 62.652C50.2919 62.652 34.729 64.9375 32.3632 91.8343C29.9974 118.731 23.0473 155.085 37.1547 163.915C51.2622 172.744 71.618 173.515 78.8884 163.915C86.1588 154.314 78.4046 78.6532 72.1031 69.4389C65.8016 60.2247 50.2919 62.652 50.2919 62.652Z" fill="#E6B54A"/>
<path d="M53.9496 237.46L56.453 110.523" stroke="#660027" stroke-width="2" stroke-miterlimit="10"/>
<path d="M38.8418 133.928L55.3314 167.617L67.516 150.772" stroke="#660027" stroke-width="2" stroke-miterlimit="10"/>
<path d="M66.081 92.5134L56.487 112.117L44.3011 95.2694" stroke="#660027" stroke-width="2" stroke-miterlimit="10"/>
<path d="M2.30307 235.778C2.30307 235.778 8.92346 223.929 23.6115 228.558C38.2994 233.186 43.2218 218.934 52.5445 220.748C61.8673 222.562 61.8687 231.885 72.2271 232.276C82.5856 232.668 84.3994 243.186 84.3994 243.186H0.486478C0.486478 243.186 -1.41322 240.033 2.30307 235.778Z" fill="#BA4A3E"/>
<path d="M25.2332 235.778C25.2332 235.778 31.8535 223.929 46.5415 228.558C61.2295 233.186 66.1519 218.934 75.476 220.748C84.8001 222.562 84.7987 231.885 95.1572 232.276C97.4908 232.323 99.7621 233.039 101.702 234.338C103.642 235.637 105.169 237.465 106.102 239.606C106.286 239.985 106.371 240.405 106.348 240.827C106.326 241.248 106.197 241.657 105.973 242.014C105.75 242.372 105.439 242.667 105.07 242.871C104.701 243.076 104.287 243.183 103.865 243.183H23.4193C23.4193 243.183 21.5183 240.033 25.2332 235.778Z" fill="#F5D3B0"/>
<path d="M153.036 48.4386C153.036 48.4386 162.204 42.7399 166.218 54.5014C170.231 66.263 167.251 66.3653 179.092 72.5427C190.933 78.7201 197.589 92.8612 184.726 108.952C171.862 125.044 176.921 135.544 194.972 139.388C213.024 143.232 230.941 166.694 210.692 190.798C190.442 214.902 159.753 200.193 157.556 180.161C156.466 170.222 151.121 161.411 139.544 161.044C127.967 160.677 119.395 136.002 132.428 119.309C145.46 102.617 138.795 95.7576 138.12 88.0407C137.445 80.3237 142.753 70.8217 142.753 70.8217L141.761 69.439C140.17 67.2727 139.162 64.7335 138.834 62.0652C138.506 59.3968 138.87 56.6889 139.889 54.2014C141.692 49.9782 145.411 46.4926 153.036 48.4386Z" fill="#233959"/>
<path d="M187.994 216.406C187.994 216.406 170.384 209.7 157.094 213.259C132.661 219.804 123.949 214.532 123.949 214.532L135.764 211.44H139.472L164.422 205.209L177.57 206.717L187.994 216.406Z" fill="#C14A3E"/>
<path d="M197.001 187.464C197.001 187.464 194.14 208.941 149.645 208.941C105.15 208.941 109.814 187.464 109.814 187.464L131.903 154.874V130.945L179.66 151.548L197.001 187.464Z" fill="#476796"/>
<path d="M166.74 186.97L160.403 238.056L155.344 238.484L151.344 187.398L166.74 186.97Z" fill="#FFAE6C"/>
<path d="M155.426 239.386L154.821 232.549H161.09L159.993 240.098L155.426 239.386Z" fill="#DC6453"/>
<path d="M155.16 236.628C154.376 238.355 154.271 240.315 154.864 242.116C155.967 244.605 171.046 243.446 172.642 241.954C174.238 240.462 160.241 237.001 160.241 237.001C160.241 237.001 155.839 239.734 155.16 236.628Z" fill="#210202"/>
<path d="M136.718 186.97L143.055 238.056L148.113 238.484L152.113 187.398L136.718 186.97Z" fill="#FFAE6C"/>
<path d="M148.03 239.386L148.635 232.549H142.366L143.463 240.098L148.03 239.386Z" fill="#DC6453"/>
<path d="M148.297 236.628C149.081 238.355 149.187 240.315 148.593 242.116C147.491 244.605 132.411 243.446 130.816 241.954C129.22 240.462 143.217 237.001 143.217 237.001C143.217 237.001 147.619 239.734 148.297 236.628Z" fill="#210202"/>
<path d="M169.007 91.4402C169.007 91.4402 141.244 86.0292 141.244 91.4402C141.244 96.8512 159.261 98.7863 163.874 96.7012C168.487 94.6162 169.007 91.4402 169.007 91.4402Z" fill="#C14A3E"/>
<path d="M178.318 114.62C172.56 127.585 170.043 141.758 170.985 155.914L136.967 155.294C136.967 155.294 138.051 125.637 132.388 112.416C126.726 99.1953 172.341 95.1016 178.318 114.62Z" fill="#DB9600"/>
<path d="M172.144 157.776C172.144 157.776 180.648 178.657 181.035 194.458C181.422 210.259 187.994 216.413 187.994 216.413C182.083 212.472 175.328 209.982 168.275 209.145C161.223 208.307 154.072 209.146 147.405 211.594C124.21 219.927 119.186 211.594 119.186 211.594C119.186 211.594 124.983 166.489 136.967 155.3C148.951 144.112 169.736 151.231 172.144 157.776Z" fill="#DC6453"/>
<path d="M170.85 146.66L174.12 163.088C174.12 163.088 155.587 153.32 131.899 162.524L137.03 146.66C147.994 148.498 159.184 148.536 170.16 146.771L170.85 146.66Z" fill="#C14A3E"/>
<path d="M162.336 97.1622C162.336 97.1622 160.33 164.243 197.001 187.464C197.001 187.464 184.509 168.265 183.173 146.66C182.433 134.679 187.26 100.889 162.336 97.1622Z" fill="#6D8EC8"/>
<path d="M172.114 110.372C172.114 110.372 174.116 137.153 171.554 140.407C168.992 143.66 150.568 144.9 150.568 144.9L149.938 151.628C149.938 151.628 173.177 158.719 179.438 154.657C185.699 150.594 186.55 120.561 172.114 110.372Z" fill="#476796"/>
<path d="M144.479 97.1622C144.479 97.1622 146.485 164.243 109.814 187.464C109.814 187.464 122.306 168.265 123.642 146.66C124.382 134.679 119.555 100.889 144.479 97.1622Z" fill="#6D8EC8"/>
<path d="M157.049 71.2199L160.703 96.584L145.696 95.4603L148.141 81.0478L157.049 71.2199Z" fill="#FFAE6C"/>
<path d="M142.933 63.9816C142.933 63.9816 136.069 78.101 144.705 83.7983C153.341 89.4957 159.377 77.7709 159.377 77.7709C159.377 77.7709 158.581 81.7256 163.707 79.1537C168.834 76.5818 166.597 64.4493 164.46 64.1534C163.764 64.1205 163.071 64.2578 162.44 64.5534C161.81 64.849 161.26 65.294 160.84 65.8498C160.276 63.7284 159.181 61.7862 157.657 60.2069C156.133 58.6277 154.232 57.4637 152.133 56.8251C144.81 54.526 142.933 63.9816 142.933 63.9816Z" fill="#FFAE6C"/>
<path d="M146.256 65.633L143.33 71.9726L147.738 72.709L146.256 65.633Z" fill="#FF6161"/>
<path d="M142.935 76.4945C142.792 76.2344 142.736 75.9351 142.776 75.6408C142.816 75.3466 142.95 75.0731 143.157 74.8606C143.364 74.6482 143.634 74.508 143.927 74.4609C144.22 74.4138 144.521 74.4623 144.784 74.5991L144.818 74.6195C145.986 75.3436 147.525 76.4277 149.578 74.7286C151.632 73.0295 152.155 79.5805 147.091 79.5014C146.174 79.486 145.284 79.1894 144.541 78.6517C143.797 78.114 143.237 77.3611 142.935 76.4945Z" fill="white"/>
<path d="M161.906 69.5385C161.906 69.5385 162.62 67.3798 163.799 67.3784C164.978 67.3771 165.615 72.3817 164.862 73.9868C164.108 75.5918 162.718 75.0681 162.38 74.5131C162.042 73.9581 163.216 73.3063 162.961 72.1813C162.702 71.266 162.349 70.3802 161.906 69.5385Z" fill="#E0965F"/>
<path d="M148.87 68.1707C148.712 68.8021 148.87 69.3844 149.213 69.4717C149.557 69.5589 149.969 69.1157 150.127 68.4844C150.286 67.853 150.127 67.2707 149.783 67.1834C149.438 67.0961 149.026 67.5393 148.87 68.1707Z" fill="#1C1C1C"/>
<path d="M143.015 67.3048C142.858 67.9362 143.015 68.5185 143.359 68.6057C143.702 68.693 144.115 68.2498 144.273 67.6185C144.431 66.9871 144.273 66.4048 143.928 66.3175C143.583 66.2303 143.172 66.6735 143.015 67.3048Z" fill="#1C1C1C"/>
<path d="M163.867 79.5014C163.77 79.8944 163.558 80.2497 163.259 80.5224C162.96 80.795 162.587 80.9728 162.187 81.033C161.787 81.0933 161.378 81.0334 161.012 80.8609C160.646 80.6884 160.339 80.4111 160.131 80.0641C159.922 79.7171 159.821 79.316 159.841 78.9117C159.86 78.5073 159.999 78.1178 160.24 77.7925C160.481 77.4672 160.813 77.2207 161.194 77.0844C161.575 76.948 161.988 76.9278 162.38 77.0263C162.905 77.1581 163.356 77.4926 163.635 77.9565C163.913 78.4204 163.997 78.9759 163.867 79.5014Z" fill="white"/>
<path d="M161.41 96.0876C164.869 95.919 168.31 96.6861 171.37 98.3082C174.431 99.9304 176.998 102.348 178.802 105.306C184.934 115.552 208.049 107.932 208.049 107.932V126.325C208.049 126.325 187.04 135.523 176.012 123.699C164.984 111.875 156.204 108.459 152.058 106.619C147.913 104.78 161.41 96.0876 161.41 96.0876Z" fill="#C14A3E"/>
<path d="M169.007 91.4402L169.939 99.7586C170.009 100.359 169.863 100.964 169.528 101.467C169.193 101.969 168.691 102.337 168.111 102.504C163.421 103.845 151.652 106.679 142.225 104.48C141.624 104.335 141.096 103.978 140.738 103.475C140.379 102.971 140.215 102.355 140.275 101.74L141.243 91.4416C141.243 91.4416 152.813 98.4903 169.007 91.4402Z" fill="#DC6453"/>
<path d="M142.954 56.4637C142.954 56.4637 140.7 69.2562 160.837 65.8498C180.975 62.4434 153.206 52.5091 153.206 52.5091L142.954 56.4637Z" fill="#233959"/>
<path d="M158.205 65.633C157.76 67.1838 157.758 68.8282 158.2 70.3798C158.642 71.9313 159.51 73.3279 160.705 74.4109C160.705 74.4109 158.025 71.0085 160.842 65.8498C163.658 60.6911 160.705 58.3497 160.705 58.3497L158.205 65.633Z" fill="#233959"/>
<path d="M144.334 55.9319C144.334 55.9319 156.542 51.9391 159.961 63.4974C159.961 63.4974 162.508 53.6041 154.037 51.0282C145.566 48.4522 144.334 55.9319 144.334 55.9319Z" fill="white"/>
<path d="M186.358 0.349121L147.477 147.206C146.413 150.961 146.866 154.983 148.739 158.407C151.248 162.826 157.264 164.55 162.751 161.68" stroke="#660027" stroke-width="2" stroke-miterlimit="10"/>
<path d="M127.774 49.3339L128.02 49.3994C130.062 47.4387 132.576 46.0389 135.317 45.3355C138.058 44.6322 140.934 44.6491 143.667 45.3847C146.4 46.1203 148.896 47.5497 150.915 49.5343C152.933 51.5189 154.406 53.9916 155.189 56.7127L155.435 56.7781C157.477 54.8174 159.99 53.4176 162.732 52.7143C165.473 52.0109 168.349 52.0279 171.082 52.7635C173.815 53.4991 176.311 54.9284 178.33 56.9131C180.348 58.8977 181.821 61.3703 182.604 64.0914L182.85 64.1569C184.892 62.1962 187.405 60.7964 190.147 60.093C192.888 59.3897 195.764 59.4067 198.497 60.1423C201.23 60.8779 203.726 62.3072 205.745 64.2918C207.763 66.2764 209.236 68.7491 210.019 71.4702L210.264 71.5357C212.054 69.8173 214.21 68.5266 216.569 67.7604C218.929 66.9941 221.431 66.7722 223.888 67.1112C226.346 67.4502 228.694 68.3413 230.759 69.7178C232.823 71.0943 234.549 72.9204 235.808 75.0593C236.997 58.92 232.526 42.8708 223.166 29.6737C213.806 16.4766 200.141 6.95728 184.523 2.75398C168.906 -1.44932 152.312 -0.0736709 137.599 6.64421C122.886 13.3621 110.973 25.002 103.91 39.5606C106.071 38.3416 108.48 37.6278 110.956 37.473C113.432 37.3182 115.911 37.7262 118.207 38.6665C120.502 39.6067 122.556 41.0549 124.213 42.9023C125.87 44.7498 127.087 46.9486 127.774 49.3339Z" fill="#6D8EC8"/>
<path d="M138.376 99.1136C138.376 99.1136 127.916 123.846 129.302 127.75C130.687 131.655 147.752 138.729 147.752 138.729L146.197 145.305C146.197 145.305 121.913 144.583 117.279 138.729C112.646 132.875 121.44 104.147 138.376 99.1136Z" fill="#476796"/>
<path d="M150.463 145.981C150.463 145.981 150.949 144.526 148.515 143.285C146.081 142.044 146.925 144.634 146.925 144.634C146.925 144.634 143.844 143.39 143.41 147.524C142.977 151.657 148.499 151.118 148.499 151.118L149.934 151.141L150.463 145.981Z" fill="#FFAE6C"/>
<path d="M147.541 139.642C147.541 139.642 147.587 138.109 150.299 137.786C153.011 137.462 151.327 139.599 151.327 139.599C151.327 139.599 154.648 139.498 153.627 143.527C152.606 147.555 147.61 145.141 147.61 145.141L146.256 144.667L147.541 139.642Z" fill="#FFAE6C"/>
<path d="M165.205 249.472C165.205 249.472 203.253 248.035 206.338 254.679C209.423 261.322 172.747 259.168 138.812 261.322C104.878 263.477 119.618 259.886 81.2283 258.988C42.8389 258.089 78.8284 247.056 114.134 249.341C149.439 251.627 165.205 249.472 165.205 249.472Z" fill="#C3D4EA"/>
</g>
<defs>
<clipPath id="clip0">
<rect width="236" height="262" fill="white"/>
</clipPath>
</defs>
</svg>
