<svg width="458" height="234" viewBox="0 0 458 234" fill="none" xmlns="http://www.w3.org/2000/svg">
<g clip-path="url(#clip0)">
<path d="M165.046 207.583C165.046 207.583 123.024 204.554 119.617 218.563C116.21 232.571 156.715 228.027 194.197 232.57C231.679 237.113 215.397 229.542 257.798 227.649C300.199 225.755 260.447 202.488 221.455 207.306C182.462 212.123 165.046 207.583 165.046 207.583Z" fill="#C3D4EA"/>
<path d="M77.7422 83.2141C77.7422 83.2141 87.588 66.8968 76.3364 60.4262C64.0898 53.3841 59.0525 60.1419 52.9264 51.1438C46.8002 42.1458 34.0746 34.2636 25.3872 41.5772C16.6997 48.8908 22.0612 64.0836 7.28455 72.243C-7.49207 80.4023 0.383782 98.6827 29.3585 102.063C58.3333 105.443 73.5178 92.5774 77.7422 83.2141Z" fill="#BA4A3E"/>
<path d="M137.983 109.18C137.983 109.18 154.427 81.9276 135.633 71.1214C115.178 59.3586 106.768 70.6509 96.5342 55.6158C86.3003 40.5807 65.0493 27.4234 50.5384 39.6397C36.0276 51.8559 44.9837 77.2295 20.3029 90.8559C-4.37783 104.482 8.77842 135.024 57.1706 140.662C105.563 146.3 130.933 124.821 137.983 109.18Z" fill="#F5D3B0"/>
<path d="M63.4445 61.7993C63.4445 61.7993 67.8622 170.983 64.8944 214.946" stroke="#660027" stroke-width="2" stroke-miterlimit="10"/>
<path d="M29.4111 109.048L64.8915 153.933L105.527 111.453" stroke="#660027" stroke-width="2" stroke-miterlimit="10"/>
<path d="M90.6852 215.842C90.6852 215.842 84.9429 206.545 76.6378 211.253C68.8131 215.686 60.6345 215.28 55.1878 205.746C53.9681 203.539 52.0561 201.795 49.7467 200.783C47.0077 199.63 42.7095 198.147 38.66 201.307C30.5653 207.627 36.1698 213.522 31.9867 216.844C28.2669 219.798 25.5322 216.297 21.0421 221.44H93.0504C92.7251 219.41 91.9136 217.49 90.6852 215.842V215.842Z" fill="#F5D3B0"/>
<path d="M368.796 139.822C368.796 139.822 358.95 123.505 370.203 117.034C382.45 109.992 387.486 116.75 393.612 107.75C399.738 98.7509 412.463 90.8716 421.151 98.1851C429.838 105.499 424.477 120.692 439.253 128.85C454.03 137.007 446.154 155.289 417.179 158.671C388.205 162.053 373.02 149.19 368.796 139.822Z" fill="#F5D3B0"/>
<path d="M406.911 111.459C406.911 111.459 402.494 189.826 405.462 221.381" stroke="#660027" stroke-width="2" stroke-miterlimit="10"/>
<path d="M361.211 215.842C361.211 215.842 366.954 206.545 375.26 211.253C383.078 215.685 391.264 215.28 396.71 205.746C397.93 203.539 399.842 201.795 402.151 200.783C404.89 199.63 409.187 198.147 413.238 201.307C421.34 207.627 415.728 213.522 419.919 216.844C423.638 219.798 426.373 216.297 430.863 221.44H358.856C359.178 219.411 359.986 217.49 361.211 215.842V215.842Z" fill="#F5D3B0"/>
<path d="M388.363 215.842C388.363 215.842 394.105 206.545 402.411 211.253C410.229 215.685 418.415 215.28 423.861 205.746C425.081 203.539 426.993 201.795 429.302 200.783C432.041 199.63 436.338 198.147 440.389 201.307C448.491 207.627 442.879 213.522 447.063 216.844C450.782 219.798 453.517 216.297 458.007 221.44H386C386.324 219.41 387.135 217.49 388.363 215.842V215.842Z" fill="#F5D3B0"/>
<path d="M215.789 163.12L216.198 155.47L222.302 156.465L220.72 164.627L215.789 163.12Z" fill="#6D8EC8"/>
<path d="M216.011 160.982C215.102 162.892 214.946 165.075 215.573 167.095C216.754 169.895 233.616 168.899 235.428 167.265C237.24 165.632 221.445 161.552 221.445 161.552C221.445 161.552 216.707 164.462 216.011 160.982Z" fill="#3D001C"/>
<path d="M180.051 95.3777L215.586 119.853L213.721 155.158L224.513 156.8L246.218 125.27C246.44 124.383 246.418 123.452 246.154 122.576C245.89 121.7 245.394 120.912 244.718 120.295L205.571 79.3661L180.051 95.3777Z" fill="#182D47"/>
<path d="M249.825 84.0996C249.825 84.0996 264.278 86.6739 266.225 90.5361C268.172 94.3983 262.031 96.8845 258.743 96.7168C255.455 96.549 256.817 93.0578 256.817 93.0578C255.588 92.3877 254.45 91.5606 253.434 90.5973C253.207 89.9889 247.774 90.5361 247.774 90.5361L249.825 84.0996Z" fill="#FFAE6C"/>
<path d="M215.327 37.344C215.327 37.344 199.904 28.8434 191.708 45.2574C186.526 55.6343 178.802 65.4824 159.457 62.5512C140.112 59.6201 131.907 73.103 131.907 73.103L140.699 92.448C140.699 92.448 145.39 80.1379 162.681 81.6035C179.972 83.069 192.53 79.8451 198.707 69.879C204.884 59.913 215.327 37.344 215.327 37.344Z" fill="#BA4A3E"/>
<path d="M220.374 35.017C220.374 35.017 209.758 20.9656 195.581 32.609C186.618 39.9709 175.548 45.8104 159.082 35.2444C142.615 24.6785 129.624 33.641 129.624 33.641L129.766 54.8908C129.766 54.8908 139.067 45.563 154.259 53.9555C169.451 62.348 182.226 64.5229 191.926 57.9442C201.625 51.3655 220.374 35.017 220.374 35.017Z" fill="#8E2D25"/>
<path d="M207.771 48.8608C207.771 48.8608 203.279 96.3827 255.529 95.1474L257.185 84.8558C257.185 84.8558 230.448 79.9161 227.952 47.3953C227.953 47.3953 218.9 34.6843 207.771 48.8608Z" fill="#5276AA"/>
<path d="M214.058 21.5299L209.083 42.3746L223.656 42.6475L222.72 30.4583L214.058 21.5299Z" fill="#FFAE6C"/>
<path d="M235.14 18.3415C235.14 18.3415 234.713 34.7412 223.959 35.8656C213.205 36.99 213.248 23.2143 213.248 23.2143C213.248 23.2143 212.085 27.2599 208.564 22.4084C205.043 17.5568 212.97 7.38322 215.088 8.13661C215.75 8.44156 216.327 8.90299 216.77 9.48105C217.213 10.0591 217.509 10.7364 217.631 11.4543C219.175 9.75862 221.127 8.48526 223.301 7.7549C225.475 7.02455 227.799 6.86141 230.054 7.28089C237.953 8.66968 235.14 18.3415 235.14 18.3415Z" fill="#FFAE6C"/>
<path d="M229.114 29.9408C229.372 29.7687 229.568 29.5181 229.673 29.2261C229.778 28.9341 229.786 28.6162 229.696 28.3194C229.606 28.0225 229.423 27.7624 229.174 27.5775C228.925 27.3926 228.623 27.2927 228.313 27.2926H228.27C226.837 27.4006 224.889 27.665 223.801 25.0992C222.714 22.5334 219.075 28.3573 223.81 30.7269C224.668 31.155 225.637 31.3091 226.586 31.1686C227.535 31.028 228.417 30.5994 229.114 29.9408V29.9408Z" fill="white"/>
<path d="M214.864 14.3528C214.864 14.3528 215.239 12.0073 214.146 11.4387C213.053 10.8701 210.051 15.2014 209.978 17.0536C209.906 18.9058 211.447 19.0892 212.028 18.7367C212.609 18.3841 211.833 17.2156 212.611 16.2945C213.292 15.5707 214.047 14.92 214.864 14.3528V14.3528Z" fill="#E0965F"/>
<path d="M227.616 19.3664C227.459 20.0274 227.035 20.4936 226.671 20.4055C226.307 20.3173 226.141 19.7118 226.299 19.0508C226.456 18.3898 226.88 17.9235 227.244 18.0103C227.608 18.097 227.774 18.704 227.616 19.3664Z" fill="#1C1C1C"/>
<path d="M233.61 21.1603C233.452 21.8213 233.029 22.2875 232.665 22.2008C232.301 22.1141 232.135 21.5071 232.293 20.8447C232.45 20.1823 232.874 19.7175 233.238 19.8042C233.602 19.8909 233.768 20.4979 233.61 21.1603Z" fill="#1C1C1C"/>
<path d="M236.555 22.0843C235.785 24.6984 233.769 26.4084 232.054 25.9024C230.338 25.3963 229.572 22.8675 230.348 20.2534C231.124 17.6393 233.136 15.9292 234.85 16.4353C236.564 16.9413 237.326 19.4701 236.555 22.0843Z" stroke="#1C1C1C" stroke-width="0.5" stroke-miterlimit="10"/>
<path d="M230.509 18.2718L230.925 25.5612L226.481 24.1198L230.509 18.2718Z" fill="#FF6161"/>
<path d="M229.342 19.6876C228.57 22.3017 226.456 23.9819 224.619 23.4389C222.781 22.8959 221.918 20.3401 222.687 17.7245C223.456 15.109 225.572 13.4302 227.41 13.9718C229.248 14.5134 230.112 17.0735 229.342 19.6876Z" stroke="#1C1C1C" stroke-width="0.5" stroke-miterlimit="10"/>
<path d="M232.693 16.8432L229.066 15.3961" stroke="#1C1C1C" stroke-width="0.5" stroke-miterlimit="10"/>
<path d="M217.631 11.4473L225.119 14.3443" stroke="#1C1C1C" stroke-width="0.5" stroke-miterlimit="10"/>
<path d="M185.512 183.42C186.579 176.85 182.117 170.66 175.548 169.594C168.979 168.528 162.789 172.989 161.723 179.559C160.657 186.129 165.118 192.319 171.687 193.385C178.257 194.452 184.446 189.99 185.512 183.42Z" fill="#BA4A3E"/>
<path d="M328.498 184.213C330.003 177.73 325.967 171.254 319.484 169.75C313.001 168.245 306.526 172.281 305.021 178.764C303.517 185.248 307.552 191.724 314.035 193.228C320.518 194.733 326.993 190.697 328.498 184.213Z" fill="#FFAE6C"/>
<path d="M227.196 175.011H212.2C211.295 175.011 210.428 174.652 209.788 174.012C209.148 173.372 208.789 172.504 208.789 171.599C208.789 170.695 209.148 169.827 209.788 169.187C210.428 168.547 211.295 168.188 212.2 168.188H227.196C228.1 168.188 228.968 168.547 229.608 169.187C230.247 169.827 230.607 170.695 230.607 171.599C230.607 172.504 230.247 173.372 229.608 174.012C228.968 174.652 228.1 175.011 227.196 175.011V175.011Z" fill="#BA4A3E"/>
<path d="M173.617 221.144C165.786 221.144 158.13 218.821 151.619 214.47C145.108 210.118 140.033 203.934 137.037 196.698C134.04 189.463 133.256 181.501 134.784 173.819C136.312 166.138 140.083 159.083 145.621 153.545C151.158 148.007 158.213 144.236 165.894 142.708C173.575 141.18 181.536 141.964 188.771 144.962C196.006 147.959 202.19 153.034 206.541 159.546C210.891 166.058 213.214 173.714 213.214 181.546C213.202 192.044 209.026 202.11 201.603 209.533C194.18 216.957 184.115 221.133 173.617 221.144ZM173.617 150.129C167.404 150.129 161.331 151.972 156.165 155.424C150.999 158.875 146.973 163.782 144.596 169.522C142.218 175.262 141.596 181.579 142.808 187.673C144.02 193.767 147.012 199.364 151.405 203.758C155.798 208.151 161.395 211.143 167.489 212.355C173.582 213.568 179.898 212.945 185.638 210.568C191.378 208.19 196.284 204.164 199.735 198.997C203.187 193.831 205.029 187.757 205.029 181.544C205.019 173.216 201.706 165.231 195.818 159.342C189.929 153.452 181.945 150.139 173.617 150.129V150.129Z" fill="#3D001C"/>
<path d="M316.759 221.144C308.928 221.144 301.273 218.821 294.762 214.47C288.251 210.118 283.176 203.934 280.179 196.698C277.182 189.463 276.398 181.501 277.926 173.819C279.454 166.138 283.226 159.083 288.763 153.545C294.301 148.007 301.356 144.236 309.037 142.708C316.717 141.18 324.679 141.964 331.914 144.962C339.149 147.959 345.332 153.034 349.683 159.546C354.034 166.058 356.356 173.714 356.356 181.546C356.344 192.044 352.169 202.11 344.745 209.533C337.322 216.957 327.257 221.133 316.759 221.144V221.144ZM316.759 150.129C310.547 150.129 304.473 151.972 299.307 155.424C294.142 158.875 290.116 163.782 287.738 169.522C285.361 175.262 284.738 181.579 285.95 187.673C287.163 193.767 290.154 199.364 294.547 203.758C298.94 208.151 304.538 211.143 310.631 212.355C316.724 213.568 323.04 212.945 328.78 210.568C334.52 208.19 339.426 204.164 342.878 198.997C346.329 193.831 348.172 187.757 348.172 181.544C348.162 173.216 344.849 165.231 338.96 159.342C333.071 153.452 325.087 150.139 316.759 150.129V150.129Z" fill="#3D001C"/>
<path d="M224.54 182.91C224.263 182.911 223.993 182.827 223.764 182.67C223.536 182.513 223.36 182.291 223.261 182.032L202.238 126.807C202.174 126.64 202.144 126.461 202.149 126.282C202.154 126.103 202.194 125.927 202.268 125.764C202.416 125.434 202.689 125.176 203.027 125.047C203.364 124.918 203.74 124.929 204.07 125.077C204.4 125.225 204.657 125.498 204.786 125.836L225.17 179.381L291.833 130.13C291.977 130.024 292.14 129.947 292.314 129.904C292.488 129.861 292.668 129.852 292.845 129.879C293.022 129.905 293.193 129.966 293.346 130.059C293.499 130.151 293.633 130.273 293.739 130.417C293.846 130.561 293.923 130.724 293.966 130.898C294.009 131.072 294.018 131.252 293.991 131.43C293.965 131.607 293.903 131.777 293.811 131.93C293.719 132.084 293.597 132.217 293.453 132.324L225.355 182.644C225.119 182.818 224.833 182.911 224.54 182.91Z" fill="#FFAE6C"/>
<path d="M316.761 182.91C316.503 182.911 316.25 182.837 316.032 182.7C315.813 182.562 315.639 182.365 315.528 182.131L274.323 95.5099C274.291 95.4388 273.103 92.8744 267.642 91.0663C262.847 89.4799 253.942 96.9669 247.22 100.656C246.904 100.82 246.535 100.854 246.195 100.75C245.854 100.646 245.567 100.413 245.395 100.1C245.224 99.7879 245.182 99.4207 245.277 99.0774C245.373 98.7341 245.6 98.4419 245.908 98.2633C253.345 94.1836 262.997 86.6355 268.551 88.4949C275.143 90.7024 276.689 94.1254 276.794 94.3628L317.986 180.96C318.063 181.122 318.107 181.297 318.116 181.476C318.125 181.655 318.099 181.834 318.039 182.002C317.979 182.171 317.886 182.326 317.766 182.459C317.646 182.592 317.501 182.7 317.339 182.777C317.159 182.864 316.961 182.909 316.761 182.91V182.91Z" fill="#BA4A3E"/>
<path d="M226.722 162.148C223.149 162.129 219.584 161.817 216.062 161.217C215.71 161.152 215.398 160.952 215.192 160.659C214.987 160.367 214.904 160.005 214.962 159.652C215.021 159.299 215.215 158.983 215.504 158.773C215.793 158.562 216.153 158.473 216.507 158.525C248.646 163.83 256.278 144.435 261.33 131.603C261.843 130.299 262.325 129.07 262.804 127.955C267.978 115.881 279.737 109.476 280.234 109.209C280.392 109.124 280.565 109.071 280.743 109.054C280.921 109.036 281.101 109.053 281.273 109.105C281.444 109.157 281.604 109.242 281.742 109.355C281.881 109.469 281.996 109.608 282.081 109.766C282.165 109.924 282.218 110.097 282.236 110.275C282.254 110.453 282.236 110.633 282.184 110.805C282.133 110.976 282.048 111.136 281.934 111.274C281.821 111.413 281.681 111.528 281.523 111.613C281.41 111.674 270.1 117.854 265.311 129.031C264.849 130.106 264.373 131.319 263.869 132.601C259.395 143.976 252.24 162.148 226.722 162.148Z" fill="#FFAE6C"/>
<path d="M174.084 182.91H173.991C173.78 182.896 173.575 182.833 173.393 182.726C173.21 182.619 173.055 182.471 172.94 182.293L138.75 129.587C138.653 129.437 138.586 129.269 138.553 129.093C138.521 128.917 138.523 128.736 138.56 128.561C138.597 128.386 138.669 128.22 138.77 128.072C138.872 127.925 139.001 127.799 139.151 127.701C139.301 127.603 139.469 127.536 139.645 127.504C139.821 127.471 140.002 127.473 140.177 127.511C140.353 127.548 140.519 127.619 140.666 127.721C140.814 127.822 140.94 127.952 141.037 128.102L174.248 179.283L208.098 140.156C208.213 140.014 208.356 139.897 208.517 139.812C208.679 139.726 208.856 139.674 209.038 139.658C209.22 139.642 209.403 139.663 209.577 139.719C209.751 139.775 209.911 139.866 210.05 139.985C210.188 140.105 210.3 140.251 210.381 140.415C210.462 140.579 210.509 140.758 210.519 140.94C210.529 141.122 210.503 141.305 210.441 141.477C210.38 141.649 210.284 141.807 210.16 141.941L175.122 182.44C174.993 182.588 174.834 182.707 174.655 182.788C174.476 182.87 174.281 182.911 174.084 182.91Z" fill="#FFAE6C"/>
<path d="M174.505 183.591C173.963 183.591 173.442 183.376 173.059 182.992C172.675 182.608 172.46 182.088 172.46 181.546V131.083C172.46 130.54 172.675 130.02 173.059 129.636C173.442 129.253 173.963 129.037 174.505 129.037C175.048 129.037 175.568 129.253 175.951 129.636C176.335 130.02 176.551 130.54 176.551 131.083V181.546C176.551 182.088 176.335 182.608 175.951 182.992C175.568 183.376 175.048 183.591 174.505 183.591V183.591Z" fill="#FFAE6C"/>
<path d="M184.176 131.231H134.286C133.653 131.231 133.046 130.979 132.598 130.532C132.151 130.084 131.899 129.477 131.899 128.844C131.899 128.211 132.151 127.604 132.598 127.156C133.046 126.709 133.653 126.457 134.286 126.457H184.176C184.809 126.457 185.416 126.709 185.864 127.156C186.311 127.604 186.563 128.211 186.563 128.844C186.563 129.477 186.311 130.084 185.864 130.532C185.416 130.979 184.809 131.231 184.176 131.231Z" fill="#BA4A3E"/>
<path d="M216.289 128.734H196.44C195.535 128.734 194.667 128.375 194.028 127.735C193.388 127.095 193.029 126.228 193.029 125.323C193.029 124.418 193.388 123.55 194.028 122.91C194.667 122.271 195.535 121.911 196.44 121.911H216.289C217.194 121.911 218.062 122.271 218.702 122.91C219.341 123.55 219.701 124.418 219.701 125.323C219.701 126.228 219.341 127.095 218.702 127.735C218.062 128.375 217.194 128.734 216.289 128.734V128.734Z" fill="#BA4A3E"/>
<path d="M230.571 198.089C230.229 198.089 229.895 197.986 229.612 197.794C229.33 197.602 229.111 197.329 228.985 197.011L223.103 182.174C222.953 181.757 222.971 181.298 223.153 180.894C223.335 180.49 223.667 180.173 224.079 180.009C224.491 179.846 224.951 179.85 225.36 180.019C225.77 180.188 226.097 180.511 226.273 180.917L232.155 195.755C232.321 196.175 232.314 196.644 232.135 197.059C231.955 197.474 231.618 197.801 231.198 197.968C230.999 198.048 230.786 198.089 230.571 198.089V198.089Z" fill="#FFAE6C"/>
<path d="M235.128 197.124H220.133C219.228 197.124 218.36 196.764 217.721 196.124C217.081 195.485 216.721 194.617 216.721 193.712C216.721 192.807 217.081 191.94 217.721 191.3C218.36 190.66 219.228 190.301 220.133 190.301H235.128C236.033 190.301 236.901 190.66 237.54 191.3C238.18 191.94 238.54 192.807 238.54 193.712C238.54 194.617 238.18 195.485 237.54 196.124C236.901 196.764 236.033 197.124 235.128 197.124Z" fill="#BA4A3E"/>
<path d="M292.641 134.638C291.993 134.638 291.358 134.453 290.81 134.105C290.263 133.757 289.826 133.261 289.551 132.673L278.007 108.015C277.663 107.202 277.647 106.287 277.963 105.463C278.28 104.639 278.903 103.97 279.702 103.596C280.501 103.221 281.414 103.171 282.25 103.456C283.085 103.741 283.777 104.339 284.181 105.123L295.726 129.782C295.968 130.301 296.076 130.874 296.039 131.446C296.003 132.018 295.822 132.572 295.515 133.056C295.207 133.54 294.783 133.938 294.281 134.215C293.778 134.491 293.215 134.637 292.641 134.638V134.638Z" fill="#BA4A3E"/>
<path d="M229.457 181.49C229.457 182.369 229.196 183.228 228.708 183.959C228.22 184.69 227.526 185.259 226.714 185.596C225.902 185.932 225.009 186.02 224.147 185.848C223.285 185.677 222.493 185.254 221.872 184.632C221.251 184.011 220.827 183.219 220.656 182.357C220.484 181.495 220.572 180.602 220.909 179.79C221.245 178.978 221.815 178.284 222.545 177.795C223.276 177.307 224.135 177.047 225.014 177.047C226.192 177.047 227.322 177.515 228.155 178.349C228.988 179.182 229.457 180.312 229.457 181.49V181.49Z" fill="#FFAE6C"/>
<path d="M182.826 218.032C182.826 218.032 179.557 212.736 174.819 215.418C170.36 217.944 165.7 217.713 162.595 212.28C161.9 211.022 160.81 210.028 159.494 209.451C158.521 208.898 157.41 208.633 156.292 208.686C155.174 208.739 154.094 209.108 153.177 209.751C148.564 213.351 151.756 216.716 149.375 218.604C147.255 220.288 145.697 218.293 143.14 221.222H184.175C183.989 220.066 183.526 218.971 182.826 218.032V218.032Z" fill="#BA4A3E"/>
<path d="M335.042 218.032C335.042 218.032 331.773 212.736 327.037 215.418C322.578 217.944 317.918 217.713 314.813 212.28C314.118 211.022 313.028 210.028 311.712 209.451C310.739 208.898 309.628 208.633 308.51 208.686C307.392 208.739 306.312 209.108 305.395 209.751C300.783 213.351 303.974 216.716 301.593 218.604C299.473 220.288 297.915 218.293 295.359 221.222H336.393C336.207 220.066 335.743 218.971 335.042 218.032V218.032Z" fill="#BA4A3E"/>
<path d="M211.222 185.082L212.157 177.477L218.178 178.89L216.036 186.925L211.222 185.082Z" fill="#6D8EC8"/>
<path d="M211.576 182.202C211.576 182.202 209.748 186.164 210.733 189.04C211.718 191.915 228.61 192.083 230.53 190.579C232.45 189.075 216.974 183.914 216.974 183.914C216.974 183.914 212.031 185.721 211.576 182.202Z" fill="#3D001C"/>
<path d="M176.551 112.093L214.011 141.905L209.715 176.998L220.376 179.381L235.054 134.298C235.338 133.428 235.38 132.497 235.177 131.605C234.975 130.712 234.534 129.891 233.903 129.229L206.817 100.823L176.551 112.093Z" fill="#233959"/>
<path d="M235.573 110.728C235.573 110.728 222.647 100.808 201.905 116.141C184.978 128.65 174.956 120.854 174.956 120.854C174.956 120.854 173.392 60.3707 205.588 38.3774C237.783 16.3841 235.573 110.728 235.573 110.728Z" fill="#6D8EC8"/>
<path d="M229.541 47.3228L232.62 36.5451C232.746 36.1027 232.707 35.6293 232.509 35.214C232.31 34.7987 231.967 34.4703 231.544 34.2906L211.249 25.6593C210.812 25.4718 210.32 25.4565 209.872 25.6166C209.424 25.7766 209.052 26.1001 208.833 26.5222L203.275 37.172C203.152 37.4077 203.081 37.6667 203.065 37.932C203.049 38.1973 203.089 38.463 203.183 38.7117C203.277 38.9603 203.423 39.1863 203.61 39.3749C203.797 39.5635 204.022 39.7104 204.27 39.806L227.049 48.5624C227.293 48.6563 227.555 48.6985 227.816 48.6862C228.077 48.6738 228.333 48.6073 228.568 48.4907C228.802 48.3741 229.009 48.2102 229.177 48.0091C229.345 47.8081 229.468 47.5743 229.541 47.3228V47.3228Z" fill="#BA4A3E"/>
<path d="M227.676 10.3243C228.779 11.6725 230.186 12.7398 231.782 13.4384C233.378 14.137 235.116 14.4469 236.855 14.3428C242.775 13.9405 246.697 3.56651 240.565 0.778972C236.615 -1.01637 234.189 1.28214 229.743 2.08529C225.297 2.88843 225.119 -2.01994 221.375 0.980821C218.711 3.11306 220.211 9.24821 220.38 9.14302L220.544 9.03926C220.544 9.03926 225.028 6.708 227.676 10.3243Z" fill="#3D001C"/>
<path d="M241.593 88.2063C241.593 88.2063 256.045 90.7792 257.992 94.6413C259.94 98.5035 253.799 100.991 250.51 100.823C247.221 100.656 248.586 97.1631 248.586 97.1631C247.356 96.4926 246.219 95.6655 245.202 94.7025C244.976 94.0941 239.543 94.6413 239.543 94.6413L241.593 88.2063Z" fill="#FFAE6C"/>
<path d="M193.03 56.7231C193.799 69.3957 200.029 98.1027 240.788 97.1404L242.444 86.8474C242.444 86.8474 217.826 82.2986 213.629 53.1992C213.411 51.3639 212.709 49.6194 211.596 48.1442C210.483 46.6691 208.997 45.5163 207.292 44.8039C206.022 44.3043 204.659 44.0861 203.297 44.1641C201.934 44.2421 200.605 44.6147 199.401 45.256C197.335 46.3368 195.632 47.9985 194.5 50.0362C193.368 52.074 192.857 54.3985 193.03 56.7231V56.7231Z" fill="#5276AA"/>
<path opacity="0.29" d="M235.047 134.298C235.047 134.298 229.942 130.929 227.631 138.091C225.319 145.252 228.901 146.857 222.299 156.463C215.697 166.07 220.369 179.381 220.369 179.381L235.047 134.298Z" fill="#233959"/>
<path opacity="0.29" d="M197.715 75.2863C200.534 75.4668 203.259 76.3731 205.625 77.9173C207.991 79.4615 209.918 81.5912 211.218 84.0996C216.004 92.9015 224.619 87.18 229.738 90.4508C231.816 91.7799 232.466 95.5554 229.738 96.7253C229.743 96.7267 207.674 96.0771 197.715 75.2863Z" fill="#233959"/>
</g>
<defs>
<clipPath id="clip0">
<rect width="458" height="234" fill="white"/>
</clipPath>
</defs>
</svg>
